# xmcd
#
# Track frame offsets:
#	150
#	20262
#	39244
#	58935
#	80267
#	95102
#	115600
#	132862
#	151270
#	171338
#	191450
#	210432
#	230123
#	251455
#	266290
#	286788
#	304050
#	322458
#
# Disc length: 4567 seconds
#
# Revision: 1
# Processed by: cddbd v1.5.2PL0 Copyright (c) Steve Scherf et al.
# Submitted via: audiograbber 1.83.01
#
DISCID=f311d512
DTITLE=Various Artist - Pop Hits Mothlly 0512-P
DYEAR=2005
DGENRE=karaoke
TTITLE0=I'm Feeling You - Santana/Michelle Branch
TTITLE1=The Great Divide - Scott Stapp
TTITLE2=More Than Words - Frankie J
TTITLE3=Stand Up For Love - Destiny's Child
TTITLE4=Don't Tread On Me - 311
TTITLE5=Wishing On A Star - Beyonce
TTITLE6=Stickwitu - Pussycast Dolls
TTITLE7=Stars - Switchfoot
TTITLE8=DOA - Foo Fighters
TTITLE9=I'm Feeling You - Santana/Michelle Branch (vocal)
TTITLE10=The Great Divide - Scott Stapp (vocal)
TTITLE11=More Than Words - Frankie J (vocal)
TTITLE12=Stand Up For Love - Destiny's Child (vocal)
TTITLE13=Don't Tread On Me - 311 (vocal)
TTITLE14=Wishing On A Star - Beyonce (vocal)
TTITLE15=Stickwitu - Pussycat Dolls (vocal)
TTITLE16=Stars - Switchfoot (vocal)
TTITLE17=DOA - Foo Fighters (vocal)
EXTD=
EXTT0=
EXTT1=
EXTT2=
EXTT3=
EXTT4=
EXTT5=
EXTT6=
EXTT7=
EXTT8=
EXTT9=
EXTT10=
EXTT11=
EXTT12=
EXTT13=
EXTT14=
EXTT15=
EXTT16=
EXTT17=
PLAYORDER=
